<svg width="15" height="15" viewBox="0 0 15 15" fill="none" xmlns="http://www.w3.org/2000/svg">
<path d="M13.2056 4.12724C13.9771 4.2435 14.6115 4.78096 14.8611 5.52992C15.1148 6.29133 14.9247 7.1172 14.3649 7.68544L12.7905 9.28348C12.5491 9.52845 12.4395 9.87414 12.4956 10.2135L12.8729 12.4968C12.975 13.1136 12.8038 13.738 12.4034 14.2099C12.008 14.6759 11.4357 14.9433 10.8331 14.9433C10.4917 14.9434 10.1507 14.8551 9.84703 14.6883L8.00372 13.6752C7.68124 13.498 7.29043 13.498 6.96795 13.6752L5.12464 14.6883C4.82099 14.8551 4.48009 14.9433 4.13868 14.9433C3.53607 14.9433 2.96364 14.676 2.56824 14.21C2.16786 13.7381 1.99661 13.1137 2.09862 12.4968L2.47599 10.2135C2.53208 9.87414 2.42249 9.52845 2.18111 9.28348L0.606679 7.68544C0.0469023 7.1172 -0.143177 6.29123 0.11066 5.52992C0.360413 4.78096 0.994707 4.2435 1.76618 4.12724L3.85595 3.81244C4.21041 3.75904 4.51505 3.5325 4.66807 3.20823L5.61996 1.19178C5.7939 0.823376 6.06557 0.517437 6.40548 0.306936C6.72985 0.106197 7.10343 0 7.48588 0C7.86833 0 8.24192 0.106098 8.56629 0.306936C8.9063 0.517437 9.17787 0.823376 9.35181 1.19178L10.3037 3.20823C10.4567 3.5324 10.7613 3.75904 11.1158 3.81244L13.2056 4.12724Z" fill="#0F3D2B"/>
</svg>
