<svg width="15" height="15" viewBox="0 0 15 15" fill="none" xmlns="http://www.w3.org/2000/svg">
<path d="M8.30309 0.732058L8.30307 0.732046C8.05801 0.580315 7.77563 0.5 7.48588 0.5C7.19628 0.5 6.91388 0.580343 6.66873 0.732023C6.41247 0.890724 6.20562 1.12245 6.0721 1.40525L5.12025 3.42161C5.12024 3.42163 5.12023 3.42165 5.12022 3.42167C4.89599 3.8968 4.44966 4.22864 3.93044 4.30686L3.85595 3.81244L3.93043 4.30686L1.84069 4.62166C1.25793 4.70948 0.776191 5.11472 0.58499 5.68807L8.30309 0.732058ZM8.30309 0.732058C8.55936 0.890717 8.76612 1.1224 8.89967 1.40525M8.30309 0.732058L8.89967 1.40525M8.89967 1.40525L9.85154 3.42166C10.0757 3.89657 10.5219 4.22862 11.0413 4.30686C11.0413 4.30686 11.0413 4.30686 11.0414 4.30686L13.1311 4.62166C13.7139 4.70949 14.1957 5.11475 14.3868 5.688L8.89967 1.40525ZM2.59193 12.5783L2.59192 12.5784C2.5136 13.052 2.64523 13.5279 2.9495 13.8865C3.25145 14.2424 3.68529 14.4433 4.13868 14.4433C4.39461 14.4433 4.65283 14.377 4.88382 14.2501C4.88382 14.2501 4.88383 14.2501 4.88384 14.2501L6.72713 13.237C7.19957 12.9774 7.77209 12.9774 8.24454 13.237L10.0878 14.2501C10.0878 14.2501 10.0878 14.2501 10.0878 14.2501C10.3189 14.3771 10.5772 14.4434 10.8329 14.4433H10.8331C11.2864 14.4433 11.7202 14.2424 12.0222 13.8864C12.3264 13.5278 12.458 13.0519 12.3797 12.5784L12.3796 12.5783L12.0023 10.295C11.9201 9.79793 12.0806 9.29148 12.4343 8.93255L14.0087 7.33456C14.0087 7.33455 14.0087 7.33454 14.0087 7.33453C14.4355 6.90126 14.5815 6.27241 14.3868 5.68804L2.59193 12.5783ZM2.59193 12.5783L2.96929 10.295M2.59193 12.5783L2.96929 10.295M2.96929 10.295C2.96929 10.295 2.9693 10.295 2.9693 10.295C3.05145 9.79793 2.89093 9.29147 2.53726 8.93255L0.962876 7.33456C0.962869 7.33455 0.962861 7.33454 0.962854 7.33453C0.536082 6.90129 0.390181 6.27237 0.584983 5.68809L2.96929 10.295Z" fill="white" stroke="#0F3D2B"/>
</svg>
